<svg width="1200" height="1200" viewBox="0 0 1200 1200" fill="none" xmlns="http://www.w3.org/2000/svg">
<path d="M0 409.412C0 378.224 25.2827 352.941 56.4706 352.941H296.471C327.658 352.941 352.941 378.224 352.941 409.412V720C352.941 751.188 327.658 776.471 296.471 776.471H56.4706C25.2828 776.471 0 751.188 0 720V409.412Z" fill="white"/>
<path d="M0 56.4706C0 25.2827 25.2827 0 56.4706 0H296.471C327.658 0 352.941 25.2827 352.941 56.4706V225.882C352.941 257.07 327.658 282.353 296.471 282.353H56.4706C25.2828 282.353 0 257.07 0 225.882V56.4706Z" fill="white"/>
<path d="M0 903.529C0 872.342 25.2827 847.059 56.4706 847.059H296.471C327.658 847.059 352.941 872.342 352.941 903.529V1143.53C352.941 1174.72 327.658 1200 296.471 1200H56.4706C25.2828 1200 0 1174.72 0 1143.53V903.529Z" fill="white"/>
<path d="M423.529 268.235C423.529 237.047 448.812 211.765 480 211.765H720C751.188 211.765 776.471 237.047 776.471 268.235V578.824C776.471 610.011 751.188 635.294 720 635.294H480C448.812 635.294 423.529 610.011 423.529 578.824V268.235Z" fill="white"/>
<path d="M423.529 762.353C423.529 731.165 448.812 705.882 480 705.882H720C751.188 705.882 776.471 731.165 776.471 762.353V931.765C776.471 962.953 751.188 988.235 720 988.235H480C448.812 988.235 423.529 962.953 423.529 931.765V762.353Z" fill="white"/>
<path d="M847.059 480C847.059 448.812 872.342 423.529 903.529 423.529H1143.53C1174.72 423.529 1200 448.812 1200 480V720C1200 751.188 1174.72 776.471 1143.53 776.471H903.529C872.342 776.471 847.059 751.188 847.059 720V480Z" fill="white"/>
</svg>
