<svg width="1200" height="1200" viewBox="0 0 1200 1200" fill="none" xmlns="http://www.w3.org/2000/svg">
<path d="M0 40C0 17.9086 17.9086 0 40 0H320C342.091 0 360 17.9086 360 40V240C360 262.091 342.091 280 320 280H40C17.9086 280 0 262.091 0 240V40Z" fill="white"/>
<path d="M0 380C0 357.909 17.9086 340 40 340H320C342.091 340 360 357.909 360 380V780C360 802.091 342.091 820 320 820H40C17.9086 820 0 802.091 0 780V380Z" fill="white"/>
<path d="M420 250C420 227.909 437.909 210 460 210H740C762.091 210 780 227.909 780 250V610C780 632.091 762.091 650 740 650H460C437.909 650 420 632.091 420 610V250Z" fill="white"/>
<path d="M840 460C840 437.909 857.909 420 880 420H1160C1182.09 420 1200 437.909 1200 460V740C1200 762.091 1182.09 780 1160 780H880C857.909 780 840 762.091 840 740V460Z" fill="white"/>
<path d="M0 920C0 897.909 17.9086 880 40 880H320C342.091 880 360 897.909 360 920V1160C360 1182.09 342.091 1200 320 1200H40C17.9086 1200 0 1182.09 0 1160V920Z" fill="white"/>
<path d="M420 750C420 727.909 437.909 710 460 710H740C762.091 710 780 727.909 780 750V950C780 972.091 762.091 990 740 990H460C437.909 990 420 972.091 420 950V750Z" fill="white"/>
</svg>
